<mxfile host="65bd71144e">
    <diagram id="XDTZPMaJzr-HPzAp_zmw" name="Page-1">
        <mxGraphModel dx="712" dy="576" grid="1" gridSize="10" guides="1" tooltips="1" connect="1" arrows="1" fold="1" page="1" pageScale="1" pageWidth="850" pageHeight="1100" math="0" shadow="0">
            <root>
                <mxCell id="0"/>
                <mxCell id="1" parent="0"/>
                <mxCell id="2" value="Customer" style="rounded=1;arcSize=10;whiteSpace=wrap;html=1;align=center;" vertex="1" parent="1">
                    <mxGeometry x="150" y="160" width="100" height="40" as="geometry"/>
                </mxCell>
                <mxCell id="3" value="Member" style="rounded=1;arcSize=10;whiteSpace=wrap;html=1;align=center;" vertex="1" parent="1">
                    <mxGeometry x="510" y="150" width="100" height="40" as="geometry"/>
                </mxCell>
                <mxCell id="4" value="Order&#10;Management" style="ellipse;" vertex="1" parent="1">
                    <mxGeometry x="330" y="135" width="90" height="90" as="geometry"/>
                </mxCell>
                <mxCell id="5" value="Payment &lt;br&gt;Gateway" style="rounded=1;arcSize=10;whiteSpace=wrap;html=1;align=center;" vertex="1" parent="1">
                    <mxGeometry x="150" y="300" width="100" height="40" as="geometry"/>
                </mxCell>
                <mxCell id="6" value="Payment &#10;Processing" style="ellipse;" vertex="1" parent="1">
                    <mxGeometry x="330" y="270" width="90" height="90" as="geometry"/>
                </mxCell>
                <mxCell id="7" value="Admin" style="rounded=1;arcSize=10;whiteSpace=wrap;html=1;align=center;" vertex="1" parent="1">
                    <mxGeometry x="510" y="295" width="100" height="40" as="geometry"/>
                </mxCell>
                <mxCell id="9" value="Order Database" style="fontStyle=1;" vertex="1" parent="1">
                    <mxGeometry x="110" y="460" width="140" height="30" as="geometry"/>
                </mxCell>
                <mxCell id="10" value="Menu Database" style="fontStyle=1;" vertex="1" parent="1">
                    <mxGeometry x="510" y="450" width="140" height="30" as="geometry"/>
                </mxCell>
                <mxCell id="11" value="Process &#10;Orders" style="ellipse;" vertex="1" parent="1">
                    <mxGeometry x="335" y="430" width="90" height="90" as="geometry"/>
                </mxCell>
                <mxCell id="12" value="User Database" style="fontStyle=1;" vertex="1" parent="1">
                    <mxGeometry x="130" y="605" width="140" height="30" as="geometry"/>
                </mxCell>
                <mxCell id="13" value="User&#10;Management" style="ellipse;" vertex="1" parent="1">
                    <mxGeometry x="330" y="580" width="90" height="90" as="geometry"/>
                </mxCell>
                <mxCell id="14" value="Reviews Database" style="fontStyle=1;" vertex="1" parent="1">
                    <mxGeometry x="530" y="605" width="140" height="30" as="geometry"/>
                </mxCell>
                <mxCell id="15" value="" style="html=1;verticalAlign=bottom;labelBackgroundColor=none;endArrow=block;endFill=1;" edge="1" parent="1">
                    <mxGeometry width="160" relative="1" as="geometry">
                        <mxPoint x="270" y="169.83" as="sourcePoint"/>
                        <mxPoint x="310" y="169.83" as="targetPoint"/>
                    </mxGeometry>
                </mxCell>
                <mxCell id="16" value="" style="html=1;verticalAlign=bottom;labelBackgroundColor=none;endArrow=block;endFill=1;" edge="1" parent="1">
                    <mxGeometry width="160" relative="1" as="geometry">
                        <mxPoint x="450" y="164.70999999999998" as="sourcePoint"/>
                        <mxPoint x="490" y="164.70999999999998" as="targetPoint"/>
                    </mxGeometry>
                </mxCell>
                <mxCell id="18" value="" style="html=1;verticalAlign=bottom;labelBackgroundColor=none;endArrow=block;endFill=1;" edge="1" parent="1">
                    <mxGeometry width="160" relative="1" as="geometry">
                        <mxPoint x="310" y="190" as="sourcePoint"/>
                        <mxPoint x="270" y="190.24" as="targetPoint"/>
                    </mxGeometry>
                </mxCell>
                <mxCell id="19" value="" style="html=1;verticalAlign=bottom;labelBackgroundColor=none;endArrow=block;endFill=1;" edge="1" parent="1">
                    <mxGeometry width="160" relative="1" as="geometry">
                        <mxPoint x="490" y="174.95" as="sourcePoint"/>
                        <mxPoint x="450" y="175.19" as="targetPoint"/>
                    </mxGeometry>
                </mxCell>
                <mxCell id="20" value="" style="html=1;verticalAlign=bottom;labelBackgroundColor=none;endArrow=block;endFill=1;" edge="1" parent="1">
                    <mxGeometry width="160" relative="1" as="geometry">
                        <mxPoint x="310" y="324.95000000000005" as="sourcePoint"/>
                        <mxPoint x="270" y="325.19000000000005" as="targetPoint"/>
                    </mxGeometry>
                </mxCell>
                <mxCell id="21" value="" style="html=1;verticalAlign=bottom;labelBackgroundColor=none;endArrow=block;endFill=1;" edge="1" parent="1">
                    <mxGeometry width="160" relative="1" as="geometry">
                        <mxPoint x="270" y="314.71000000000004" as="sourcePoint"/>
                        <mxPoint x="310" y="314.71000000000004" as="targetPoint"/>
                    </mxGeometry>
                </mxCell>
                <mxCell id="24" value="" style="html=1;verticalAlign=bottom;labelBackgroundColor=none;endArrow=block;endFill=1;" edge="1" parent="1">
                    <mxGeometry width="160" relative="1" as="geometry">
                        <mxPoint x="320" y="630.24" as="sourcePoint"/>
                        <mxPoint x="280" y="630.48" as="targetPoint"/>
                    </mxGeometry>
                </mxCell>
                <mxCell id="25" value="" style="html=1;verticalAlign=bottom;labelBackgroundColor=none;endArrow=block;endFill=1;" edge="1" parent="1">
                    <mxGeometry width="160" relative="1" as="geometry">
                        <mxPoint x="280" y="620" as="sourcePoint"/>
                        <mxPoint x="320" y="620" as="targetPoint"/>
                    </mxGeometry>
                </mxCell>
                <mxCell id="26" value="" style="html=1;verticalAlign=bottom;labelBackgroundColor=none;endArrow=block;endFill=1;" edge="1" parent="1">
                    <mxGeometry width="160" relative="1" as="geometry">
                        <mxPoint x="500" y="624.92" as="sourcePoint"/>
                        <mxPoint x="460" y="625.16" as="targetPoint"/>
                    </mxGeometry>
                </mxCell>
                <mxCell id="27" value="" style="html=1;verticalAlign=bottom;labelBackgroundColor=none;endArrow=block;endFill=1;" edge="1" parent="1">
                    <mxGeometry width="160" relative="1" as="geometry">
                        <mxPoint x="460" y="614.68" as="sourcePoint"/>
                        <mxPoint x="500" y="614.68" as="targetPoint"/>
                    </mxGeometry>
                </mxCell>
                <mxCell id="28" value="" style="html=1;verticalAlign=bottom;labelBackgroundColor=none;endArrow=block;endFill=1;" edge="1" parent="1">
                    <mxGeometry width="160" relative="1" as="geometry">
                        <mxPoint x="310" y="474.76000000000005" as="sourcePoint"/>
                        <mxPoint x="270" y="475.00000000000006" as="targetPoint"/>
                    </mxGeometry>
                </mxCell>
                <mxCell id="29" value="" style="html=1;verticalAlign=bottom;labelBackgroundColor=none;endArrow=block;endFill=1;" edge="1" parent="1">
                    <mxGeometry width="160" relative="1" as="geometry">
                        <mxPoint x="174.76" y="540" as="sourcePoint"/>
                        <mxPoint x="174.76" y="510" as="targetPoint"/>
                    </mxGeometry>
                </mxCell>
                <mxCell id="30" value="" style="html=1;verticalAlign=bottom;labelBackgroundColor=none;endArrow=block;endFill=1;" edge="1" parent="1">
                    <mxGeometry width="160" relative="1" as="geometry">
                        <mxPoint x="184.76" y="520" as="sourcePoint"/>
                        <mxPoint x="184.76" y="550" as="targetPoint"/>
                    </mxGeometry>
                </mxCell>
                <mxCell id="31" value="" style="html=1;verticalAlign=bottom;labelBackgroundColor=none;endArrow=block;endFill=1;" edge="1" parent="1">
                    <mxGeometry width="160" relative="1" as="geometry">
                        <mxPoint x="384.71" y="540" as="sourcePoint"/>
                        <mxPoint x="384.71" y="570" as="targetPoint"/>
                    </mxGeometry>
                </mxCell>
                <mxCell id="32" value="" style="html=1;verticalAlign=bottom;labelBackgroundColor=none;endArrow=block;endFill=1;" edge="1" parent="1">
                    <mxGeometry width="160" relative="1" as="geometry">
                        <mxPoint x="374.71" y="560" as="sourcePoint"/>
                        <mxPoint x="374.71" y="530" as="targetPoint"/>
                    </mxGeometry>
                </mxCell>
                <mxCell id="34" value="" style="html=1;verticalAlign=bottom;labelBackgroundColor=none;endArrow=block;endFill=1;" edge="1" parent="1">
                    <mxGeometry width="160" relative="1" as="geometry">
                        <mxPoint x="379.71000000000004" y="380" as="sourcePoint"/>
                        <mxPoint x="379.71000000000004" y="410" as="targetPoint"/>
                    </mxGeometry>
                </mxCell>
                <mxCell id="35" value="" style="html=1;verticalAlign=bottom;labelBackgroundColor=none;endArrow=block;endFill=1;" edge="1" parent="1">
                    <mxGeometry width="160" relative="1" as="geometry">
                        <mxPoint x="369.71000000000004" y="400" as="sourcePoint"/>
                        <mxPoint x="369.71000000000004" y="370" as="targetPoint"/>
                    </mxGeometry>
                </mxCell>
                <mxCell id="36" value="" style="html=1;verticalAlign=bottom;labelBackgroundColor=none;endArrow=block;endFill=1;" edge="1" parent="1">
                    <mxGeometry width="160" relative="1" as="geometry">
                        <mxPoint x="200.00000000000003" y="380" as="sourcePoint"/>
                        <mxPoint x="200.00000000000003" y="410" as="targetPoint"/>
                    </mxGeometry>
                </mxCell>
                <mxCell id="37" value="" style="html=1;verticalAlign=bottom;labelBackgroundColor=none;endArrow=block;endFill=1;" edge="1" parent="1">
                    <mxGeometry width="160" relative="1" as="geometry">
                        <mxPoint x="190.00000000000003" y="400" as="sourcePoint"/>
                        <mxPoint x="190.00000000000003" y="370" as="targetPoint"/>
                    </mxGeometry>
                </mxCell>
                <mxCell id="38" value="" style="html=1;verticalAlign=bottom;labelBackgroundColor=none;endArrow=block;endFill=1;" edge="1" parent="1">
                    <mxGeometry width="160" relative="1" as="geometry">
                        <mxPoint x="450" y="464.71000000000004" as="sourcePoint"/>
                        <mxPoint x="490" y="464.71000000000004" as="targetPoint"/>
                    </mxGeometry>
                </mxCell>
                <mxCell id="39" value="" style="html=1;verticalAlign=bottom;labelBackgroundColor=none;endArrow=block;endFill=1;" edge="1" parent="1">
                    <mxGeometry width="160" relative="1" as="geometry">
                        <mxPoint x="199.71000000000004" y="220" as="sourcePoint"/>
                        <mxPoint x="199.71000000000004" y="250" as="targetPoint"/>
                    </mxGeometry>
                </mxCell>
                <mxCell id="40" value="" style="html=1;verticalAlign=bottom;labelBackgroundColor=none;endArrow=block;endFill=1;" edge="1" parent="1">
                    <mxGeometry width="160" relative="1" as="geometry">
                        <mxPoint x="374.71000000000004" y="230" as="sourcePoint"/>
                        <mxPoint x="374.71000000000004" y="260" as="targetPoint"/>
                    </mxGeometry>
                </mxCell>
            </root>
        </mxGraphModel>
    </diagram>
</mxfile>